<?xml version="1.0" encoding="UTF-8"?>
<!DOCTYPE svg PUBLIC "-//W3C//DTD SVG 1.1//EN" "http://www.w3.org/Graphics/SVG/1.1/DTD/svg11.dtd">
<svg xmlns="http://www.w3.org/2000/svg" version="1.1" width="520px" height="556px" style="shape-rendering:geometricPrecision; text-rendering:geometricPrecision; image-rendering:optimizeQuality; fill-rule:evenodd; clip-rule:evenodd" xmlns:xlink="http://www.w3.org/1999/xlink">
<g><path style="opacity:1" fill="#fefefe" d="M -0.5,-0.5 C 172.833,-0.5 346.167,-0.5 519.5,-0.5C 519.5,184.833 519.5,370.167 519.5,555.5C 346.167,555.5 172.833,555.5 -0.5,555.5C -0.5,370.167 -0.5,184.833 -0.5,-0.5 Z"/></g>
<g><path style="opacity:1" fill="#15b004" d="M 257.5,5.5 C 257.5,132.833 257.5,260.167 257.5,387.5C 234.918,387.296 217.752,377.629 206,358.5C 200.48,345.752 197.48,332.418 197,318.5C 196.5,257.168 196.333,195.834 196.5,134.5C 182.167,134.5 167.833,134.5 153.5,134.5C 153.333,200.501 153.5,266.501 154,332.5C 159.164,377.968 183.331,408.468 226.5,424C 236.6,427.133 246.933,428.633 257.5,428.5C 257.5,469.5 257.5,510.5 257.5,551.5C 185.319,512.492 113.486,472.826 42,432.5C 28.9576,321.537 16.1243,210.537 3.5,99.5C 3.55074,97.9002 3.88407,96.4002 4.5,95C 88.8307,65.0571 173.164,35.2237 257.5,5.5 Z"/></g>
<g><path style="opacity:1" fill="#258200" d="M 257.5,551.5 C 257.5,510.5 257.5,469.5 257.5,428.5C 304.517,428.423 338.35,407.423 359,365.5C 363.268,354.891 365.935,343.891 367,332.5C 367.5,266.501 367.667,200.501 367.5,134.5C 353.01,133.504 338.343,133.171 323.5,133.5C 323.5,195.167 323.5,256.833 323.5,318.5C 324.589,343.121 315.589,362.955 296.5,378C 284.457,385.094 271.457,388.261 257.5,387.5C 257.5,260.167 257.5,132.833 257.5,5.5C 343.645,34.05 429.979,63.2167 516.5,93C 517.704,94.3528 518.371,96.0194 518.5,98C 504.943,209.287 490.777,320.453 476,431.5C 402.985,472.072 330.151,512.072 257.5,551.5 Z"/></g>
<g><path style="opacity:1" fill="#fefefe" d="M 257.5,387.5 C 271.457,388.261 284.457,385.094 296.5,378C 315.589,362.955 324.589,343.121 323.5,318.5C 324.499,257.336 324.832,196.002 324.5,134.5C 338.833,134.5 353.167,134.5 367.5,134.5C 367.667,200.501 367.5,266.501 367,332.5C 365.935,343.891 363.268,354.891 359,365.5C 338.35,407.423 304.517,428.423 257.5,428.5C 246.933,428.633 236.6,427.133 226.5,424C 183.331,408.468 159.164,377.968 154,332.5C 153.5,266.501 153.333,200.501 153.5,134.5C 167.833,134.5 182.167,134.5 196.5,134.5C 196.333,195.834 196.5,257.168 197,318.5C 197.48,332.418 200.48,345.752 206,358.5C 217.752,377.629 234.918,387.296 257.5,387.5 Z"/></g>
<g><path style="opacity:1" fill="#b4d3a8" d="M 367.5,134.5 C 353.167,134.5 338.833,134.5 324.5,134.5C 324.832,196.002 324.499,257.336 323.5,318.5C 323.5,256.833 323.5,195.167 323.5,133.5C 338.343,133.171 353.01,133.504 367.5,134.5 Z"/></g>
</svg>
