<?xml version="1.0" encoding="UTF-8"?>
<!DOCTYPE svg PUBLIC "-//W3C//DTD SVG 1.1//EN" "http://www.w3.org/Graphics/SVG/1.1/DTD/svg11.dtd">
<svg xmlns="http://www.w3.org/2000/svg" version="1.1" width="176px" height="176px" style="shape-rendering:geometricPrecision; text-rendering:geometricPrecision; image-rendering:optimizeQuality; fill-rule:evenodd; clip-rule:evenodd" xmlns:xlink="http://www.w3.org/1999/xlink">
<g><path style="opacity:1" fill="#000000" d="M -0.5,-0.5 C 58.1667,-0.5 116.833,-0.5 175.5,-0.5C 175.5,58.1667 175.5,116.833 175.5,175.5C 116.833,175.5 58.1667,175.5 -0.5,175.5C -0.5,116.833 -0.5,58.1667 -0.5,-0.5 Z"/></g>
<g><path style="opacity:1" fill="#fcfcfc" d="M 147.5,35.5 C 147.5,65.1667 147.5,94.8333 147.5,124.5C 131.167,124.5 114.833,124.5 98.5,124.5C 98.5,118.5 98.5,112.5 98.5,106.5C 99.2543,103.909 100.921,102.076 103.5,101C 115.999,93.9185 128.332,86.5852 140.5,79C 141.833,77.6667 141.833,76.3333 140.5,75C 125.833,74.3333 111.167,74.3333 96.5,75C 70.0021,92.0833 43.3354,108.917 16.5,125.5C 15.3339,111.846 15.1673,98.1788 16,84.5C 42.2481,67.6244 68.7481,51.1244 95.5,35C 113.005,34.1715 130.338,34.3382 147.5,35.5 Z"/></g>
<g><path style="opacity:1" fill="#cecece" d="M 147.5,35.5 C 148.498,65.3287 148.831,95.3287 148.5,125.5C 131.5,125.5 114.5,125.5 97.5,125.5C 97.1765,118.978 97.5098,112.645 98.5,106.5C 98.5,112.5 98.5,118.5 98.5,124.5C 114.833,124.5 131.167,124.5 147.5,124.5C 147.5,94.8333 147.5,65.1667 147.5,35.5 Z"/></g>
</svg>
