<?xml version="1.0" encoding="UTF-8"?>
<!DOCTYPE svg PUBLIC "-//W3C//DTD SVG 1.1//EN" "http://www.w3.org/Graphics/SVG/1.1/DTD/svg11.dtd">
<svg xmlns="http://www.w3.org/2000/svg" version="1.1" width="180px" height="180px" style="shape-rendering:geometricPrecision; text-rendering:geometricPrecision; image-rendering:optimizeQuality; fill-rule:evenodd; clip-rule:evenodd" xmlns:xlink="http://www.w3.org/1999/xlink">
<g><path style="opacity:0.973" fill="#2779ff" d="M 69.5,-0.5 C 82.8333,-0.5 96.1667,-0.5 109.5,-0.5C 111.214,0.738379 113.214,1.40505 115.5,1.5C 114.852,3.08584 114.352,4.75251 114,6.5C 113.189,5.0403 112.355,4.70696 111.5,5.5C 112.641,6.42549 112.641,7.25883 111.5,8C 115.483,7.72473 115.483,8.72473 111.5,11C 112.5,11.3333 113.5,11.6667 114.5,12C 112.59,12.4083 111.59,13.5749 111.5,15.5C 113.195,17.5678 113.862,19.7345 113.5,22C 111.431,22.3242 111.098,23.1575 112.5,24.5C 112.023,25.4776 111.357,26.3109 110.5,27C 112.891,27.6914 112.891,28.6914 110.5,30C 111.5,30.3333 112.5,30.6667 113.5,31C 112.167,31.6667 112.167,32.3333 113.5,33C 112.252,34.3997 111.252,35.8997 110.5,37.5C 100.818,34.1003 90.8184,32.767 80.5,33.5C 77.1226,33.9595 73.7893,34.6261 70.5,35.5C 69.0779,35.2504 68.0779,34.417 67.5,33C 68.2453,30.4291 68.5787,27.9291 68.5,25.5C 67.8333,25.1667 67.1667,24.8333 66.5,24.5C 67.767,22.6293 67.767,20.7959 66.5,19C 68.1247,18.1475 68.4581,17.1475 67.5,16C 70.0933,13.2601 69.76,10.5934 66.5,8C 67.3331,5.91888 67.3331,3.75221 66.5,1.5C 67.5,0.833333 68.5,0.166667 69.5,-0.5 Z"/></g>
<g><path style="opacity:0.971" fill="#2a7fff" d="M 66.5,1.5 C 67.3331,3.75221 67.3331,5.91888 66.5,8C 69.76,10.5934 70.0933,13.2601 67.5,16C 68.4581,17.1475 68.1247,18.1475 66.5,19C 67.767,20.7959 67.767,22.6293 66.5,24.5C 67.1667,24.8333 67.8333,25.1667 68.5,25.5C 68.5787,27.9291 68.2453,30.4291 67.5,33C 68.0779,34.417 69.0779,35.2504 70.5,35.5C 70.5,35.8333 70.5,36.1667 70.5,36.5C 68.0326,36.7549 66.0326,37.7549 64.5,39.5C 52.1095,45.5573 43.1095,54.8906 37.5,67.5C 36.8826,67.6107 36.3826,67.944 36,68.5C 35.5,66.5 35,64.5 34.5,62.5C 34.8178,61.3527 35.4844,60.5194 36.5,60C 35.7069,58.9148 35.0402,57.7481 34.5,56.5C 35.2438,53.3168 35.2438,50.3168 34.5,47.5C 34.8457,46.3044 35.3457,46.3044 36,47.5C 35.6811,45.4049 35.8477,43.4049 36.5,41.5C 36.4096,39.5749 35.4096,38.4083 33.5,38C 34.1667,37.6667 34.8333,37.3333 35.5,37C 34.5,36.1667 33.5,35.3333 32.5,34.5C 34.0737,33.0158 35.407,31.3492 36.5,29.5C 35.9747,28.8076 35.3081,28.3076 34.5,28C 35.6721,27.5814 36.6721,26.9147 37.5,26C 33.085,25.1771 32.7517,24.0104 36.5,22.5C 37.7374,20.1155 37.7374,17.7821 36.5,15.5C 45.4331,8.70204 55.4331,4.03537 66.5,1.5 Z"/></g>
<g><path style="opacity:0.975" fill="#2072ff" d="M 140.5,13.5 C 143.956,15.7833 147.29,18.2833 150.5,21C 153.336,24.6668 156.336,28.1668 159.5,31.5C 158.368,33.4669 158.701,35.3002 160.5,37C 159.167,37 157.833,37 156.5,37C 156.865,46.4769 158.199,56.1436 160.5,66C 158.546,67.6929 158.546,69.6929 160.5,72C 159.833,72.6667 159.167,73.3333 158.5,74C 158.501,75.3988 158.835,76.8988 159.5,78.5C 157.122,81.0239 157.455,82.3573 160.5,82.5C 160.023,83.4776 159.357,84.3109 158.5,85C 159.167,85.3333 159.833,85.6667 160.5,86C 159.342,87.0086 158.675,88.3419 158.5,90C 159.035,91.8718 159.035,93.5384 158.5,95C 159.167,95.6667 159.833,96.3333 160.5,97C 159.09,97.3678 158.09,98.2011 157.5,99.5C 157.864,101.733 158.864,103.566 160.5,105C 157.675,106.474 157.342,107.974 159.5,109.5C 159.023,110.478 158.357,111.311 157.5,112C 157.962,113.722 158.128,115.555 158,117.5C 158.654,116.304 159.154,116.304 159.5,117.5C 157.851,118.974 156.851,120.807 156.5,123C 159.191,124.47 159.191,126.803 156.5,130C 157.448,130.483 158.448,130.649 159.5,130.5C 159.65,133.459 158.65,135.959 156.5,138C 158.093,140.936 159.093,144.102 159.5,147.5C 155.263,152.683 150.597,157.349 145.5,161.5C 144.167,161.5 142.833,161.5 141.5,161.5C 141.789,157.894 141.456,154.394 140.5,151C 142.939,147.56 142.939,144.227 140.5,141C 141.167,140.333 141.833,139.667 142.5,139C 141.756,136.517 141.756,133.851 142.5,131C 141.643,130.311 140.977,129.478 140.5,128.5C 140.455,125.033 140.789,121.7 141.5,118.5C 141.154,117.304 140.654,117.304 140,118.5C 139.517,117.552 139.351,116.552 139.5,115.5C 141.453,110.595 143.12,105.595 144.5,100.5C 145.486,96.03 145.819,91.3633 145.5,86.5C 145.736,83.3915 145.403,80.3915 144.5,77.5C 144.483,75.4352 144.15,73.4352 143.5,71.5C 142.791,70.596 141.791,70.2627 140.5,70.5C 140.413,67.4017 140.913,67.0684 142,69.5C 144.113,67.7289 143.947,66.2289 141.5,65C 141.585,62.0202 141.919,59.0202 142.5,56C 142,55.5 141.5,55 141,54.5C 140.667,56.5 140.333,58.5 140,60.5C 139.333,57.5 139.333,54.5 140,51.5C 141.156,52.9928 141.99,52.8261 142.5,51C 141.576,49.85 141.576,48.85 142.5,48C 141.692,47.6924 141.025,47.1924 140.5,46.5C 142.891,43.565 142.891,40.565 140.5,37.5C 141.623,34.2019 141.623,30.8686 140.5,27.5C 140.437,25.5191 141.104,23.8524 142.5,22.5C 141.76,19.4649 141.094,16.4649 140.5,13.5 Z"/></g>
<g><path style="opacity:0.964" fill="#2e82ff" d="M 36.5,15.5 C 37.7374,17.7821 37.7374,20.1155 36.5,22.5C 32.7517,24.0104 33.085,25.1771 37.5,26C 36.6721,26.9147 35.6721,27.5814 34.5,28C 35.3081,28.3076 35.9747,28.8076 36.5,29.5C 35.407,31.3492 34.0737,33.0158 32.5,34.5C 33.5,35.3333 34.5,36.1667 35.5,37C 34.8333,37.3333 34.1667,37.6667 33.5,38C 35.4096,38.4083 36.4096,39.5749 36.5,41.5C 35.8477,43.4049 35.6811,45.4049 36,47.5C 35.3457,46.3044 34.8457,46.3044 34.5,47.5C 35.2438,50.3168 35.2438,53.3168 34.5,56.5C 35.0402,57.7481 35.7069,58.9148 36.5,60C 35.4844,60.5194 34.8178,61.3527 34.5,62.5C 35,64.5 35.5,66.5 36,68.5C 36.3826,67.944 36.8826,67.6107 37.5,67.5C 32.1998,81.8313 32.1998,96.1647 37.5,110.5C 36.0689,110.119 35.2355,109.119 35,107.5C 34.3131,109.92 34.8131,112.087 36.5,114C 35.3318,115.406 35.6652,116.572 37.5,117.5C 36.233,119.371 36.233,121.204 37.5,123C 34.8333,124 34.8333,125 37.5,126C 36.376,126.249 35.376,126.749 34.5,127.5C 34.4616,131.232 34.795,135.065 35.5,139C 34.5159,140.657 33.5159,142.323 32.5,144C 33.448,144.483 34.448,144.649 35.5,144.5C 36.0039,148.022 36.6706,151.522 37.5,155C 36.9777,155.95 36.311,156.784 35.5,157.5C 36.8146,159.199 36.8146,160.865 35.5,162.5C 33.0676,161.25 30.7343,159.75 28.5,158C 14.4112,144.081 4.74451,127.581 -0.5,108.5C -0.5,95.8333 -0.5,83.1667 -0.5,70.5C 5.086,47.5888 17.4193,29.2555 36.5,15.5 Z"/></g>
<g><path style="opacity:0.927" fill="#1c6fff" d="M 159.5,31.5 C 165.513,38.2819 170.346,45.9485 174,54.5C 175.77,59.9795 177.603,65.3128 179.5,70.5C 179.5,83.1667 179.5,95.8333 179.5,108.5C 176.231,118.787 172.065,128.787 167,138.5C 164.636,141.69 162.136,144.69 159.5,147.5C 159.093,144.102 158.093,140.936 156.5,138C 158.65,135.959 159.65,133.459 159.5,130.5C 158.448,130.649 157.448,130.483 156.5,130C 159.191,126.803 159.191,124.47 156.5,123C 156.851,120.807 157.851,118.974 159.5,117.5C 159.154,116.304 158.654,116.304 158,117.5C 158.128,115.555 157.962,113.722 157.5,112C 158.357,111.311 159.023,110.478 159.5,109.5C 157.342,107.974 157.675,106.474 160.5,105C 158.864,103.566 157.864,101.733 157.5,99.5C 158.09,98.2011 159.09,97.3678 160.5,97C 159.833,96.3333 159.167,95.6667 158.5,95C 159.035,93.5384 159.035,91.8718 158.5,90C 158.675,88.3419 159.342,87.0086 160.5,86C 159.833,85.6667 159.167,85.3333 158.5,85C 159.357,84.3109 160.023,83.4776 160.5,82.5C 157.455,82.3573 157.122,81.0239 159.5,78.5C 158.835,76.8988 158.501,75.3988 158.5,74C 159.167,73.3333 159.833,72.6667 160.5,72C 158.546,69.6929 158.546,67.6929 160.5,66C 158.199,56.1436 156.865,46.4769 156.5,37C 157.833,37 159.167,37 160.5,37C 158.701,35.3002 158.368,33.4669 159.5,31.5 Z"/></g>
<g><path style="opacity:1" fill="#9bbfff" d="M 80.5,33.5 C 77.4954,35.2766 74.1621,36.2766 70.5,36.5C 70.5,36.1667 70.5,35.8333 70.5,35.5C 73.7893,34.6261 77.1226,33.9595 80.5,33.5 Z"/></g>
<g><path style="opacity:1" fill="#f9fbff" d="M 80.5,33.5 C 90.8184,32.767 100.818,34.1003 110.5,37.5C 116.514,41.6734 123.18,43.8401 130.5,44C 138.371,48.1456 140.537,54.3123 137,62.5C 131.431,69.0687 125.098,70.0687 118,65.5C 116.295,63.4234 115.128,61.09 114.5,58.5C 114.657,57.1266 114.49,55.7932 114,54.5C 111.552,53.0268 109.052,51.6935 106.5,50.5C 104.383,48.3455 101.716,47.3455 98.5,47.5C 98.1667,47.5 97.8333,47.5 97.5,47.5C 95.0221,46.8359 92.3555,46.5025 89.5,46.5C 85.5313,46.2942 81.8646,46.9608 78.5,48.5C 76.1016,48.2594 74.1016,48.9261 72.5,50.5C 62.1667,54.8333 54.8333,62.1667 50.5,72.5C 48.9261,74.1016 48.2594,76.1016 48.5,78.5C 46.9942,81.356 46.3275,84.5226 46.5,88C 46.646,92.595 47.3126,97.095 48.5,101.5C 48.1201,103.698 48.7868,105.365 50.5,106.5C 54.8552,116.855 62.1885,124.189 72.5,128.5C 74.1016,130.074 76.1016,130.741 78.5,130.5C 79.209,131.404 80.209,131.737 81.5,131.5C 84.1459,132.164 86.9792,132.498 90,132.5C 94.1327,132.714 97.966,132.048 101.5,130.5C 103.698,130.88 105.365,130.213 106.5,128.5C 108.368,127.737 110.035,126.737 111.5,125.5C 119.618,121.381 125.285,115.048 128.5,106.5C 130.213,105.365 130.88,103.698 130.5,101.5C 130.833,100.167 131.167,98.8333 131.5,97.5C 132.421,96.019 133.588,94.6856 135,93.5C 138.029,92.4951 141.029,91.4951 144,90.5C 144.498,93.8168 144.665,97.1501 144.5,100.5C 143.12,105.595 141.453,110.595 139.5,115.5C 133.447,126.553 124.78,134.887 113.5,140.5C 109.605,141.462 105.939,142.796 102.5,144.5C 102.167,144.5 101.833,144.5 101.5,144.5C 94.8689,145.331 88.2022,145.664 81.5,145.5C 79.0479,144.935 76.7146,144.268 74.5,143.5C 72.8984,141.926 70.8984,141.259 68.5,141.5C 53.8899,135.557 43.5565,125.223 37.5,110.5C 32.1998,96.1647 32.1998,81.8313 37.5,67.5C 43.1095,54.8906 52.1095,45.5573 64.5,39.5C 66.9674,39.2451 68.9674,38.2451 70.5,36.5C 74.1621,36.2766 77.4954,35.2766 80.5,33.5 Z"/></g>
<g><path style="opacity:1" fill="#bed6ff" d="M 70.5,36.5 C 68.9674,38.2451 66.9674,39.2451 64.5,39.5C 66.0326,37.7549 68.0326,36.7549 70.5,36.5 Z"/></g>
<g><path style="opacity:1" fill="#8ab5ff" d="M 97.5,47.5 C 91.1308,47.347 84.7974,47.6803 78.5,48.5C 81.8646,46.9608 85.5313,46.2942 89.5,46.5C 92.3555,46.5025 95.0221,46.8359 97.5,47.5 Z"/></g>
<g><path style="opacity:1" fill="#2a7aff" d="M 97.5,47.5 C 97.8333,47.5 98.1667,47.5 98.5,47.5C 100.936,48.871 103.603,49.871 106.5,50.5C 109.052,51.6935 111.552,53.0268 114,54.5C 114.49,55.7932 114.657,57.1266 114.5,58.5C 112.743,59.292 111.409,60.6253 110.5,62.5C 111.641,63.4255 111.641,64.2588 110.5,65C 112.891,65.6914 112.891,66.6914 110.5,68C 111.167,68.3333 111.833,68.6667 112.5,69C 111.427,70.2504 111.427,71.5838 112.5,73C 111.491,73.3546 110.824,74.1879 110.5,75.5C 107.431,72.4229 104.097,69.7563 100.5,67.5C 99.3646,65.7868 97.698,65.1201 95.5,65.5C 95.1667,65.5 94.8333,65.5 94.5,65.5C 92.866,64.8389 91.0326,64.5056 89,64.5C 85.8502,64.3603 83.0169,65.027 80.5,66.5C 77.2451,67.7657 74.2451,69.4324 71.5,71.5C 68.8053,69.7491 68.1387,67.4158 69.5,64.5C 68.9067,62.6183 68.2401,60.7849 67.5,59C 68.3279,58.0853 69.3279,57.4186 70.5,57C 69.1667,56.3333 67.8333,55.6667 66.5,55C 69.104,54.2089 71.104,52.7089 72.5,50.5C 74.1016,48.9261 76.1016,48.2594 78.5,48.5C 84.7974,47.6803 91.1308,47.347 97.5,47.5 Z"/></g>
<g><path style="opacity:1" fill="#b0ccff" d="M 98.5,47.5 C 101.716,47.3455 104.383,48.3455 106.5,50.5C 103.603,49.871 100.936,48.871 98.5,47.5 Z"/></g>
<g><path style="opacity:1" fill="#2676ff" d="M 115.5,1.5 C 124.23,4.69828 132.563,8.69828 140.5,13.5C 141.094,16.4649 141.76,19.4649 142.5,22.5C 141.104,23.8524 140.437,25.5191 140.5,27.5C 141.623,30.8686 141.623,34.2019 140.5,37.5C 142.891,40.565 142.891,43.565 140.5,46.5C 141.025,47.1924 141.692,47.6924 142.5,48C 141.576,48.85 141.576,49.85 142.5,51C 141.99,52.8261 141.156,52.9928 140,51.5C 139.333,54.5 139.333,57.5 140,60.5C 140.333,58.5 140.667,56.5 141,54.5C 141.5,55 142,55.5 142.5,56C 141.919,59.0202 141.585,62.0202 141.5,65C 143.947,66.2289 144.113,67.7289 142,69.5C 140.913,67.0684 140.413,67.4017 140.5,70.5C 141.791,70.2627 142.791,70.596 143.5,71.5C 141.973,71.427 140.973,72.0937 140.5,73.5C 138.632,74.2632 136.965,75.2632 135.5,76.5C 133.833,76.5 132.167,76.5 130.5,76.5C 131.032,82.1523 131.365,87.819 131.5,93.5C 131.5,94.8333 131.5,96.1667 131.5,97.5C 131.167,98.8333 130.833,100.167 130.5,101.5C 129.463,102.93 128.796,104.597 128.5,106.5C 125.285,115.048 119.618,121.381 111.5,125.5C 108.903,125.279 108.903,124.779 111.5,124C 111.167,123.667 110.833,123.333 110.5,123C 111.833,122 113.167,121 114.5,120C 111.332,119.418 110.999,118.418 113.5,117C 112.426,116.261 111.759,115.261 111.5,114C 112.833,112.667 112.833,111.333 111.5,110C 112.484,108.343 113.484,106.677 114.5,105C 113.833,104.667 113.167,104.333 112.5,104C 112.726,101.731 113.059,99.2314 113.5,96.5C 113.5,92.5 113.5,88.5 113.5,84.5C 113.741,82.1016 113.074,80.1016 111.5,78.5C 111.443,77.391 111.11,76.391 110.5,75.5C 110.824,74.1879 111.491,73.3546 112.5,73C 111.427,71.5838 111.427,70.2504 112.5,69C 111.833,68.6667 111.167,68.3333 110.5,68C 112.891,66.6914 112.891,65.6914 110.5,65C 111.641,64.2588 111.641,63.4255 110.5,62.5C 111.409,60.6253 112.743,59.292 114.5,58.5C 115.128,61.09 116.295,63.4234 118,65.5C 125.098,70.0687 131.431,69.0687 137,62.5C 140.537,54.3123 138.371,48.1456 130.5,44C 123.18,43.8401 116.514,41.6734 110.5,37.5C 111.252,35.8997 112.252,34.3997 113.5,33C 112.167,32.3333 112.167,31.6667 113.5,31C 112.5,30.6667 111.5,30.3333 110.5,30C 112.891,28.6914 112.891,27.6914 110.5,27C 111.357,26.3109 112.023,25.4776 112.5,24.5C 111.098,23.1575 111.431,22.3242 113.5,22C 113.862,19.7345 113.195,17.5678 111.5,15.5C 111.59,13.5749 112.59,12.4083 114.5,12C 113.5,11.6667 112.5,11.3333 111.5,11C 115.483,8.72473 115.483,7.72473 111.5,8C 112.641,7.25883 112.641,6.42549 111.5,5.5C 112.355,4.70696 113.189,5.0403 114,6.5C 114.352,4.75251 114.852,3.08584 115.5,1.5 Z"/></g>
<g><path style="opacity:1" fill="#3180ff" d="M 72.5,50.5 C 71.104,52.7089 69.104,54.2089 66.5,55C 67.8333,55.6667 69.1667,56.3333 70.5,57C 69.3279,57.4186 68.3279,58.0853 67.5,59C 68.2401,60.7849 68.9067,62.6183 69.5,64.5C 68.1387,67.4158 68.8053,69.7491 71.5,71.5C 70.1944,73.8162 68.8611,76.1495 67.5,78.5C 65.9261,80.1016 65.2594,82.1016 65.5,84.5C 64.2573,96.3444 68.5906,105.344 78.5,111.5C 82.3548,114.035 86.6882,115.035 91.5,114.5C 89.369,115.314 87.0356,115.814 84.5,116C 86.9001,117.057 89.2335,117.724 91.5,118C 90.4495,119.385 89.1161,120.385 87.5,121C 88.2266,122.399 88.7266,123.899 89,125.5C 90.0495,124.483 91.2161,124.316 92.5,125C 88.1898,126.503 87.8564,128.17 91.5,130C 89.9419,130.21 88.6085,130.71 87.5,131.5C 85.5,131.5 83.5,131.5 81.5,131.5C 80.209,131.737 79.209,131.404 78.5,130.5C 76.8984,128.926 74.8984,128.259 72.5,128.5C 62.1885,124.189 54.8552,116.855 50.5,106.5C 50.2041,104.597 49.5375,102.93 48.5,101.5C 47.3126,97.095 46.646,92.595 46.5,88C 46.3275,84.5226 46.9942,81.356 48.5,78.5C 50.0739,76.8984 50.7406,74.8984 50.5,72.5C 54.8333,62.1667 62.1667,54.8333 72.5,50.5 Z"/></g>
<g><path style="opacity:1" fill="#92baff" d="M 94.5,65.5 C 89.7971,65.4372 85.1304,65.7705 80.5,66.5C 83.0169,65.027 85.8502,64.3603 89,64.5C 91.0326,64.5056 92.866,64.8389 94.5,65.5 Z"/></g>
<g><path style="opacity:1" fill="#fdfdff" d="M 94.5,65.5 C 94.8333,65.5 95.1667,65.5 95.5,65.5C 96.9303,66.5375 98.597,67.2041 100.5,67.5C 104.097,69.7563 107.431,72.4229 110.5,75.5C 111.11,76.391 111.443,77.391 111.5,78.5C 111.259,80.8984 111.926,82.8984 113.5,84.5C 113.5,88.5 113.5,92.5 113.5,96.5C 109.932,105.73 103.265,111.396 93.5,113.5C 88.3457,113.706 83.3457,113.039 78.5,111.5C 68.5906,105.344 64.2573,96.3444 65.5,84.5C 67.0739,82.8984 67.7406,80.8984 67.5,78.5C 68.8611,76.1495 70.1944,73.8162 71.5,71.5C 74.2451,69.4324 77.2451,67.7657 80.5,66.5C 85.1304,65.7705 89.7971,65.4372 94.5,65.5 Z"/></g>
<g><path style="opacity:1" fill="#70a2ff" d="M 95.5,65.5 C 97.698,65.1201 99.3646,65.7868 100.5,67.5C 98.597,67.2041 96.9303,66.5375 95.5,65.5 Z"/></g>
<g><path style="opacity:1" fill="#85b0ff" d="M 143.5,71.5 C 144.15,73.4352 144.483,75.4352 144.5,77.5C 143.732,76.7375 143.232,75.7375 143,74.5C 142.329,73.7476 141.496,73.4142 140.5,73.5C 140.973,72.0937 141.973,71.427 143.5,71.5 Z"/></g>
<g><path style="opacity:1" fill="#679eff" d="M 50.5,72.5 C 50.7406,74.8984 50.0739,76.8984 48.5,78.5C 48.2594,76.1016 48.9261,74.1016 50.5,72.5 Z"/></g>
<g><path style="opacity:1" fill="#bed6ff" d="M 140.5,73.5 C 141.496,73.4142 142.329,73.7476 143,74.5C 143.232,75.7375 143.732,76.7375 144.5,77.5C 145.403,80.3915 145.736,83.3915 145.5,86.5C 144.835,84.3021 144.168,81.9688 143.5,79.5C 140.536,82.8148 136.87,84.8148 132.5,85.5C 131.908,82.8728 131.575,80.2062 131.5,77.5C 133.099,77.7678 134.432,77.4345 135.5,76.5C 136.965,75.2632 138.632,74.2632 140.5,73.5 Z"/></g>
<g><path style="opacity:1" fill="#bad3ff" d="M 67.5,78.5 C 67.7406,80.8984 67.0739,82.8984 65.5,84.5C 65.2594,82.1016 65.9261,80.1016 67.5,78.5 Z"/></g>
<g><path style="opacity:1" fill="#b8d0ff" d="M 111.5,78.5 C 113.074,80.1016 113.741,82.1016 113.5,84.5C 111.926,82.8984 111.259,80.8984 111.5,78.5 Z"/></g>
<g><path style="opacity:1" fill="#e4eeff" d="M 145.5,86.5 C 145.819,91.3633 145.486,96.03 144.5,100.5C 144.665,97.1501 144.498,93.8168 144,90.5C 141.029,91.4951 138.029,92.4951 135,93.5C 133.588,94.6856 132.421,96.019 131.5,97.5C 131.5,96.1667 131.5,94.8333 131.5,93.5C 132.473,91.0521 132.806,88.3854 132.5,85.5C 136.87,84.8148 140.536,82.8148 143.5,79.5C 144.168,81.9688 144.835,84.3021 145.5,86.5 Z"/></g>
<g><path style="opacity:1" fill="#699fff" d="M 135.5,76.5 C 134.432,77.4345 133.099,77.7678 131.5,77.5C 131.575,80.2062 131.908,82.8728 132.5,85.5C 132.806,88.3854 132.473,91.0521 131.5,93.5C 131.365,87.819 131.032,82.1523 130.5,76.5C 132.167,76.5 133.833,76.5 135.5,76.5 Z"/></g>
<g><path style="opacity:1" fill="#2a7aff" d="M 113.5,96.5 C 113.059,99.2314 112.726,101.731 112.5,104C 113.167,104.333 113.833,104.667 114.5,105C 113.484,106.677 112.484,108.343 111.5,110C 112.833,111.333 112.833,112.667 111.5,114C 111.759,115.261 112.426,116.261 113.5,117C 110.999,118.418 111.332,119.418 114.5,120C 113.167,121 111.833,122 110.5,123C 110.833,123.333 111.167,123.667 111.5,124C 108.903,124.779 108.903,125.279 111.5,125.5C 110.035,126.737 108.368,127.737 106.5,128.5C 104.597,128.796 102.93,129.463 101.5,130.5C 96.8696,131.229 92.2029,131.563 87.5,131.5C 88.6085,130.71 89.9419,130.21 91.5,130C 87.8564,128.17 88.1898,126.503 92.5,125C 91.2161,124.316 90.0495,124.483 89,125.5C 88.7266,123.899 88.2266,122.399 87.5,121C 89.1161,120.385 90.4495,119.385 91.5,118C 89.2335,117.724 86.9001,117.057 84.5,116C 87.0356,115.814 89.369,115.314 91.5,114.5C 92.4916,114.672 93.1583,114.338 93.5,113.5C 103.265,111.396 109.932,105.73 113.5,96.5 Z"/></g>
<g><path style="opacity:1" fill="#b1cdff" d="M 48.5,101.5 C 49.5375,102.93 50.2041,104.597 50.5,106.5C 48.7868,105.365 48.1201,103.698 48.5,101.5 Z"/></g>
<g><path style="opacity:1" fill="#acc9ff" d="M 130.5,101.5 C 130.88,103.698 130.213,105.365 128.5,106.5C 128.796,104.597 129.463,102.93 130.5,101.5 Z"/></g>
<g><path style="opacity:0.964" fill="#2b7fff" d="M 37.5,110.5 C 43.5565,125.223 53.8899,135.557 68.5,141.5C 68.5,141.833 68.5,142.167 68.5,142.5C 66.0958,144.591 66.4291,146.591 69.5,148.5C 68.3128,149.519 67.3128,150.686 66.5,152C 67.8333,153.667 67.8333,155.333 66.5,157C 69.0799,158.481 69.9132,160.648 69,163.5C 68.3457,162.304 67.8457,162.304 67.5,163.5C 69.0224,165.156 68.689,166.323 66.5,167C 67.9037,169.978 68.2371,172.978 67.5,176C 68.3805,176.708 69.0472,177.542 69.5,178.5C 56.8177,175.823 45.4844,170.49 35.5,162.5C 36.8146,160.865 36.8146,159.199 35.5,157.5C 36.311,156.784 36.9777,155.95 37.5,155C 36.6706,151.522 36.0039,148.022 35.5,144.5C 34.448,144.649 33.448,144.483 32.5,144C 33.5159,142.323 34.5159,140.657 35.5,139C 34.795,135.065 34.4616,131.232 34.5,127.5C 35.376,126.749 36.376,126.249 37.5,126C 34.8333,125 34.8333,124 37.5,123C 36.233,121.204 36.233,119.371 37.5,117.5C 35.6652,116.572 35.3318,115.406 36.5,114C 34.8131,112.087 34.3131,109.92 35,107.5C 35.2355,109.119 36.0689,110.119 37.5,110.5 Z"/></g>
<g><path style="opacity:1" fill="#9bc0ff" d="M 78.5,111.5 C 83.3457,113.039 88.3457,113.706 93.5,113.5C 93.1583,114.338 92.4916,114.672 91.5,114.5C 86.6882,115.035 82.3548,114.035 78.5,111.5 Z"/></g>
<g><path style="opacity:0.962" fill="#2476ff" d="M 139.5,115.5 C 139.351,116.552 139.517,117.552 140,118.5C 140.654,117.304 141.154,117.304 141.5,118.5C 140.789,121.7 140.455,125.033 140.5,128.5C 140.977,129.478 141.643,130.311 142.5,131C 141.756,133.851 141.756,136.517 142.5,139C 141.833,139.667 141.167,140.333 140.5,141C 142.939,144.227 142.939,147.56 140.5,151C 141.456,154.394 141.789,157.894 141.5,161.5C 142.833,161.5 144.167,161.5 145.5,161.5C 134.574,169.63 122.574,175.63 109.5,179.5C 102.833,179.5 96.1667,179.5 89.5,179.5C 88.6427,177.138 88.3093,174.804 88.5,172.5C 91.0756,171.117 90.7423,170.283 87.5,170C 88.1667,169.667 88.8333,169.333 89.5,169C 88.572,168.612 87.9054,167.945 87.5,167C 88.444,165.523 89.7774,164.523 91.5,164C 92.0891,162.127 91.4224,160.46 89.5,159C 91.9734,157.598 91.9734,156.098 89.5,154.5C 89.4807,152.894 89.6474,151.228 90,149.5C 88.6012,148.773 87.1012,148.273 85.5,148C 88.3647,147.817 91.0314,147.317 93.5,146.5C 96.5533,146.889 99.22,146.223 101.5,144.5C 101.833,144.5 102.167,144.5 102.5,144.5C 106.708,144.323 110.374,142.99 113.5,140.5C 124.78,134.887 133.447,126.553 139.5,115.5 Z"/></g>
<g><path style="opacity:1" fill="#659bff" d="M 72.5,128.5 C 74.8984,128.259 76.8984,128.926 78.5,130.5C 76.1016,130.741 74.1016,130.074 72.5,128.5 Z"/></g>
<g><path style="opacity:1" fill="#aecaff" d="M 106.5,128.5 C 105.365,130.213 103.698,130.88 101.5,130.5C 102.93,129.463 104.597,128.796 106.5,128.5 Z"/></g>
<g><path style="opacity:1" fill="#abc9ff" d="M 101.5,130.5 C 97.966,132.048 94.1327,132.714 90,132.5C 86.9792,132.498 84.1459,132.164 81.5,131.5C 83.5,131.5 85.5,131.5 87.5,131.5C 92.2029,131.563 96.8696,131.229 101.5,130.5 Z"/></g>
<g><path style="opacity:1" fill="#689bff" d="M 113.5,140.5 C 110.374,142.99 106.708,144.323 102.5,144.5C 105.939,142.796 109.605,141.462 113.5,140.5 Z"/></g>
<g><path style="opacity:1" fill="#c0d7ff" d="M 68.5,142.5 C 68.5,142.167 68.5,141.833 68.5,141.5C 70.8984,141.259 72.8984,141.926 74.5,143.5C 72.4352,143.483 70.4352,143.15 68.5,142.5 Z"/></g>
<g><path style="opacity:0.981" fill="#277bff" d="M 68.5,142.5 C 70.4352,143.15 72.4352,143.483 74.5,143.5C 76.7146,144.268 79.0479,144.935 81.5,145.5C 85.2984,146.483 89.2984,146.817 93.5,146.5C 91.0314,147.317 88.3647,147.817 85.5,148C 87.1012,148.273 88.6012,148.773 90,149.5C 89.6474,151.228 89.4807,152.894 89.5,154.5C 91.9734,156.098 91.9734,157.598 89.5,159C 91.4224,160.46 92.0891,162.127 91.5,164C 89.7774,164.523 88.444,165.523 87.5,167C 87.9054,167.945 88.572,168.612 89.5,169C 88.8333,169.333 88.1667,169.667 87.5,170C 90.7423,170.283 91.0756,171.117 88.5,172.5C 88.3093,174.804 88.6427,177.138 89.5,179.5C 82.8333,179.5 76.1667,179.5 69.5,179.5C 69.5,179.167 69.5,178.833 69.5,178.5C 69.0472,177.542 68.3805,176.708 67.5,176C 68.2371,172.978 67.9037,169.978 66.5,167C 68.689,166.323 69.0224,165.156 67.5,163.5C 67.8457,162.304 68.3457,162.304 69,163.5C 69.9132,160.648 69.0799,158.481 66.5,157C 67.8333,155.333 67.8333,153.667 66.5,152C 67.3128,150.686 68.3128,149.519 69.5,148.5C 66.4291,146.591 66.0958,144.591 68.5,142.5 Z"/></g>
<g><path style="opacity:1" fill="#5493ff" d="M 101.5,144.5 C 99.22,146.223 96.5533,146.889 93.5,146.5C 89.2984,146.817 85.2984,146.483 81.5,145.5C 88.2022,145.664 94.8689,145.331 101.5,144.5 Z"/></g>
</svg>
