<?xml version="1.0" encoding="UTF-8"?>
<!DOCTYPE svg PUBLIC "-//W3C//DTD SVG 1.1//EN" "http://www.w3.org/Graphics/SVG/1.1/DTD/svg11.dtd">
<svg xmlns="http://www.w3.org/2000/svg" version="1.1" width="864px" height="864px" style="shape-rendering:geometricPrecision; text-rendering:geometricPrecision; image-rendering:optimizeQuality; fill-rule:evenodd; clip-rule:evenodd" xmlns:xlink="http://www.w3.org/1999/xlink">
<g><path style="opacity:1" fill="#ecf1f6" d="M -0.5,-0.5 C 287.5,-0.5 575.5,-0.5 863.5,-0.5C 863.5,287.5 863.5,575.5 863.5,863.5C 575.5,863.5 287.5,863.5 -0.5,863.5C -0.5,575.5 -0.5,287.5 -0.5,-0.5 Z"/></g>
<g><path style="opacity:1" fill="#fa70a9" d="M 734.5,381.5 C 726.613,310.964 698.78,249.63 651,197.5C 672.05,238.973 687.383,282.64 697,328.5C 713.352,417.233 697.852,499.899 650.5,576.5C 656.705,581.044 663.705,582.711 671.5,581.5C 663.757,583.064 656.091,582.398 648.5,579.5C 643.62,576.801 639.12,573.468 635,569.5C 627.755,560.01 620.755,550.344 614,540.5C 611.963,538.294 609.797,536.294 607.5,534.5C 598.633,524.753 587.633,521.253 574.5,524C 569.517,525.488 565.184,527.988 561.5,531.5C 560.662,531.842 560.328,532.508 560.5,533.5C 557.168,536 554.334,539 552,542.5C 546.916,551.003 541.583,559.336 536,567.5C 524.237,582.151 509.737,585.818 492.5,578.5C 487.599,575.108 483.099,571.108 479,566.5C 472,556.833 465,547.167 458,537.5C 455.894,534.882 453.394,532.882 450.5,531.5C 447.862,528.379 444.528,526.212 440.5,525C 424.806,520.434 411.973,524.6 402,537.5C 399.228,541.388 396.728,545.388 394.5,549.5C 388.726,559.862 381.393,569.028 372.5,577C 355.041,585.808 339.707,582.975 326.5,568.5C 320.245,559.065 313.745,549.731 307,540.5C 303.298,536.63 299.464,532.963 295.5,529.5C 278.802,519.845 263.635,521.845 250,535.5C 245.397,541.048 241.563,547.048 238.5,553.5C 233.504,561.678 227.504,569.178 220.5,576C 204.11,585.901 189.11,584.067 175.5,570.5C 151.542,530.793 137.042,487.793 132,441.5C 122.482,334.691 155.649,243.858 231.5,169C 320.92,90.6561 422.253,70.3227 535.5,108C 630.895,147.397 693.395,216.564 723,315.5C 729.101,337.108 732.935,359.108 734.5,381.5 Z"/></g>
<g><path style="opacity:1" fill="#fefefe" d="M 405.5,175.5 C 464.248,172.293 510.415,194.626 544,242.5C 575.458,290.713 582.458,342.379 565,397.5C 549.826,439.338 520.66,465.838 477.5,477C 444.296,484.636 410.963,485.303 377.5,479C 323.3,467.799 289.8,435.299 277,381.5C 262.883,309.171 284.049,249.671 340.5,203C 360.144,188.839 381.811,179.672 405.5,175.5 Z"/></g>
<g><path style="opacity:1" fill="#e24ca6" d="M 734.5,381.5 C 738.334,436.506 729.834,489.506 709,540.5C 702.568,554.228 694.068,566.394 683.5,577C 679.781,579.364 675.781,580.864 671.5,581.5C 663.705,582.711 656.705,581.044 650.5,576.5C 697.852,499.899 713.352,417.233 697,328.5C 687.383,282.64 672.05,238.973 651,197.5C 698.78,249.63 726.613,310.964 734.5,381.5 Z"/></g>
<g><path style="opacity:1" fill="#060876" d="M 370.5,222.5 C 412.678,220.425 435.678,240.425 439.5,282.5C 438.138,313.339 422.804,333.173 393.5,342C 359.116,344.955 337.282,329.788 328,296.5C 323.042,271.708 329.875,250.875 348.5,234C 355.485,229.342 362.818,225.509 370.5,222.5 Z"/></g>
<g><path style="opacity:1" fill="#fcfcfd" d="M 366.5,240.5 C 390.223,239.724 401.723,251.057 401,274.5C 395.367,290.907 383.867,298.074 366.5,296C 346.02,287.204 340.52,272.704 350,252.5C 354.305,246.672 359.805,242.672 366.5,240.5 Z"/></g>
<g><path style="opacity:1" fill="#373c74" d="M 295.5,529.5 C 282.789,530.947 272.622,536.947 265,547.5C 260,555.5 255,563.5 250,571.5C 246.619,576.282 242.786,580.615 238.5,584.5C 238.5,574.167 238.5,563.833 238.5,553.5C 241.563,547.048 245.397,541.048 250,535.5C 263.635,521.845 278.802,519.845 295.5,529.5 Z"/></g>
<g><path style="opacity:1" fill="#373c74" d="M 450.5,531.5 C 442.841,533.975 436.341,538.308 431,544.5C 422.784,557.768 413.951,570.601 404.5,583C 401.553,585.783 398.22,587.95 394.5,589.5C 394.5,576.167 394.5,562.833 394.5,549.5C 396.728,545.388 399.228,541.388 402,537.5C 411.973,524.6 424.806,520.434 440.5,525C 444.528,526.212 447.862,528.379 450.5,531.5 Z"/></g>
<g><path style="opacity:1" fill="#363c74" d="M 607.5,534.5 C 602.313,537.173 597.813,540.84 594,545.5C 587,556.167 580,566.833 573,577.5C 569.633,581.203 565.966,584.536 562,587.5C 561.5,568.836 561.333,550.17 561.5,531.5C 565.184,527.988 569.517,525.488 574.5,524C 587.633,521.253 598.633,524.753 607.5,534.5 Z"/></g>
<g><path style="opacity:1" fill="#4e56a6" d="M 295.5,529.5 C 299.464,532.963 303.298,536.63 307,540.5C 313.745,549.731 320.245,559.065 326.5,568.5C 326.667,591.502 326.5,614.502 326,637.5C 319.037,666.112 300.87,678.612 271.5,675C 253.178,669.01 242.345,656.51 239,637.5C 238.5,619.836 238.333,602.17 238.5,584.5C 242.786,580.615 246.619,576.282 250,571.5C 255,563.5 260,555.5 265,547.5C 272.622,536.947 282.789,530.947 295.5,529.5 Z"/></g>
<g><path style="opacity:1" fill="#4e56a6" d="M 450.5,531.5 C 453.394,532.882 455.894,534.882 458,537.5C 465,547.167 472,556.833 479,566.5C 483.099,571.108 487.599,575.108 492.5,578.5C 492.667,625.835 492.5,673.168 492,720.5C 483.928,750.456 464.428,763.956 433.5,761C 412.489,755.321 399.656,741.821 395,720.5C 394.5,676.835 394.333,633.168 394.5,589.5C 398.22,587.95 401.553,585.783 404.5,583C 413.951,570.601 422.784,557.768 431,544.5C 436.341,538.308 442.841,533.975 450.5,531.5 Z"/></g>
<g><path style="opacity:1" fill="#4e56a6" d="M 561.5,531.5 C 561.333,550.17 561.5,568.836 562,587.5C 565.966,584.536 569.633,581.203 573,577.5C 580,566.833 587,556.167 594,545.5C 597.813,540.84 602.313,537.173 607.5,534.5C 609.797,536.294 611.963,538.294 614,540.5C 620.755,550.344 627.755,560.01 635,569.5C 639.12,573.468 643.62,576.801 648.5,579.5C 648.667,606.169 648.5,632.835 648,659.5C 641.59,688.133 623.757,700.633 594.5,697C 575.596,691.429 564.43,678.929 561,659.5C 560.5,617.501 560.333,575.501 560.5,533.5C 560.328,532.508 560.662,531.842 561.5,531.5 Z"/></g>
</svg>
