<?xml version="1.0" encoding="UTF-8"?>
<!DOCTYPE svg PUBLIC "-//W3C//DTD SVG 1.1//EN" "http://www.w3.org/Graphics/SVG/1.1/DTD/svg11.dtd">
<svg xmlns="http://www.w3.org/2000/svg" version="1.1" width="128px" height="128px" style="shape-rendering:geometricPrecision; text-rendering:geometricPrecision; image-rendering:optimizeQuality; fill-rule:evenodd; clip-rule:evenodd" xmlns:xlink="http://www.w3.org/1999/xlink">
<g><path style="opacity:1" fill="#28282a" d="M -0.5,-0.5 C 42.1667,-0.5 84.8333,-0.5 127.5,-0.5C 127.5,42.1667 127.5,84.8333 127.5,127.5C 84.8333,127.5 42.1667,127.5 -0.5,127.5C -0.5,84.8333 -0.5,42.1667 -0.5,-0.5 Z"/></g>
<g><path style="opacity:1" fill="#f7f7f7" d="M 62.5,8.5 C 72.8451,19.4721 82.5118,31.1388 91.5,43.5C 89.8506,50.0635 88.8506,56.7302 88.5,63.5C 85.089,64.3597 81.7556,65.5263 78.5,67C 89.5483,78.3788 100.215,90.0455 110.5,102C 107.967,106.898 105.301,111.731 102.5,116.5C 101.277,117.614 99.9437,117.781 98.5,117C 82.8333,109.167 67.1667,101.333 51.5,93.5C 48.5555,101.945 46.5555,110.611 45.5,119.5C 37.4386,117.981 29.4386,116.147 21.5,114C 20.9186,113.107 20.5852,112.107 20.5,111C 24.0959,81.8261 28.4292,52.8261 33.5,24C 43.331,18.9691 52.9977,13.8024 62.5,8.5 Z"/></g>
<g><path style="opacity:1" fill="#302f31" d="M 60.5,17.5 C 62.371,17.8588 63.871,18.8588 65,20.5C 69.8333,26.6667 74.6667,32.8333 79.5,39C 67.614,35.4797 55.9473,31.1464 44.5,26C 50.0534,23.3924 55.3868,20.5591 60.5,17.5 Z"/></g>
<g><path style="opacity:1" fill="#333234" d="M 44.5,31.5 C 44.7352,30.9033 45.2352,30.5699 46,30.5C 49.461,31.9315 52.961,33.2648 56.5,34.5C 57.8333,37.5 57.8333,40.5 56.5,43.5C 52.8394,39.1727 48.8394,35.1727 44.5,31.5 Z"/></g>
<g><path style="opacity:1" fill="#2b2a2c" d="M 37.5,34.5 C 57.7817,54.6175 77.615,75.2842 97,96.5C 98.4578,98.96 100.291,101.127 102.5,103C 101.277,105.961 99.2774,107.627 96.5,108C 75.1326,97.8996 53.966,87.3996 33,76.5C 34.1669,62.4916 35.6669,48.4916 37.5,34.5 Z"/></g>
<g><path style="opacity:1" fill="#2c2c2e" d="M 59.5,35.5 C 67.1045,38.4246 74.7712,41.258 82.5,44C 83.0641,48.7436 83.0641,53.5769 82.5,58.5C 79.0491,59.2693 75.7158,60.1027 72.5,61C 68.3671,55.8656 63.8671,51.0323 59,46.5C 59.1097,42.871 59.2764,39.2044 59.5,35.5 Z"/></g>
<g><path style="opacity:1" fill="#313132" d="M 30.5,83.5 C 35.6179,85.2246 40.2846,87.7246 44.5,91C 42.7676,97.4281 41.4342,103.928 40.5,110.5C 36.753,110.608 33.0863,110.108 29.5,109C 28.4844,108.481 27.8178,107.647 27.5,106.5C 28.9683,98.8892 29.9683,91.2225 30.5,83.5 Z"/></g>
</svg>
